<?xml version="1.0" encoding="utf-8"?>
<!-- Generator: Adobe Illustrator 26.0.1, SVG Export Plug-In . SVG Version: 6.00 Build 0)  -->
<svg version="1.1" id="Layer_1" xmlns="http://www.w3.org/2000/svg" xmlns:xlink="http://www.w3.org/1999/xlink" x="0px" y="0px"
	 viewBox="0 0 1920 351" style="enable-background:new 0 0 1920 351;" xml:space="preserve">
<style type="text/css">
	.st0{opacity:0.35;fill:#22B573;}
	.st1{fill:#22B573;}
</style>
<path class="st0" d="M1920,0c-0.2,93.4-0.4,186.8-0.5,280.2c-429.6,104.9-694.8,46.7-860.2-31C946.5,196.3,850.6,119.3,654.7,60.4
	C472.4,5.6,309.4-2.1,198,0.5C772,0.3,1346,0.2,1920,0z"/>
<path class="st1" d="M1920,0c-0.2,83.4-0.4,166.8-0.5,250.2c-429.6,93.7-694.8,41.7-860.2-27.7C946.5,175.3,850.6,106.6,654.7,54
	C472.4,5,309.4-1.8,198,0.4C772,0.3,1346,0.1,1920,0z"/>
</svg>
